<svg class="icon" viewBox="0 0 1024 1024" version="1.1" xmlns="http://www.w3.org/2000/svg" width="200" height="200">
    <path d="M256.410578 940.384405H91.122722c-15.462716 0-27.999168-12.536452-27.999168-27.999168v-592.645304c0-15.462716 12.536452-27.999168 27.999168-27.999168h165.287856c15.462716 0 27.999168 12.536452 27.999168 27.999168v592.645304c0 15.462716-12.536452 27.999168-27.999168 27.999168zM119.12189 884.386069h109.28952V347.740125H119.12189v536.645944zM595.723103 940.384405H430.435247c-15.462716 0-27.999168-12.536452-27.999168-27.999168V500.341018c0-15.462716 12.536452-27.999168 27.999168-27.999168h165.287856c15.462716 0 27.999168 12.536452 27.999168 27.999168v412.044219c0 15.462716-12.536452 27.999168-27.999168 27.999168z m-137.288688-55.998336h109.28952v-356.045883h-109.28952v356.045883zM928.92508 940.384405H763.62289c-15.462716 0-27.999168-12.536452-27.999168-27.999168V111.852305c0-15.462716 12.536452-27.999168 27.999168-27.999169h165.30219c15.462716 0 27.999168 12.536452 27.999168 27.999169v800.533956c0 15.461692-12.537476 27.998144-27.999168 27.998144z m-137.303022-55.998336h109.303854V139.851473H791.622058v744.534596z" fill="#232832"></path>
</svg>